<?xml version="1.0" encoding="UTF-8"?>
<svg width="24px" height="24px" viewBox="0 0 24 24" version="1.1" xmlns="http://www.w3.org/2000/svg">
    <path fill="#FFFFFF" d="M21.75 7.5H17.5V6.5C17.5 5.96957 17.2893 5.46086 16.9142 5.08579C16.5391 4.71071 16.0304 4.5 15.5 4.5H9.5C8.96957 4.5 8.46086 4.71071 8.08579 5.08579C7.71071 5.46086 7.5 5.96957 7.5 6.5V7.5H2.25C1.85218 7.5 1.47064 7.65804 1.18934 7.93934C0.908035 8.22064 0.75 8.60218 0.75 9V19C0.75 19.3978 0.908035 19.7794 1.18934 20.0607C1.47064 20.342 1.85218 20.5 2.25 20.5H21.75C22.1478 20.5 22.5294 20.342 22.8107 20.0607C23.092 19.7794 23.25 19.3978 23.25 19V9C23.25 8.60218 23.092 8.22064 22.8107 7.93934C22.5294 7.65804 22.1478 7.5 21.75 7.5ZM9 6.5C9 6.36739 9.05268 6.24021 9.14645 6.14645C9.24021 6.05268 9.36739 6 9.5 6H15.5C15.6326 6 15.7598 6.05268 15.8536 6.14645C15.9473 6.24021 16 6.36739 16 6.5V7.5H9V6.5ZM21.75 19H2.25V9H21.75V19Z"/>
    <path fill="#FFFFFF" d="M12 10.5C11.2044 10.5 10.4413 10.8161 9.87868 11.3787C9.31607 11.9413 9 12.7044 9 13.5C9 14.2956 9.31607 15.0587 9.87868 15.6213C10.4413 16.1839 11.2044 16.5 12 16.5C12.7956 16.5 13.5587 16.1839 14.1213 15.6213C14.6839 15.0587 15 14.2956 15 13.5C15 12.7044 14.6839 11.9413 14.1213 11.3787C13.5587 10.8161 12.7956 10.5 12 10.5ZM12 15C11.6022 15 11.2206 14.842 10.9393 14.5607C10.658 14.2794 10.5 13.8978 10.5 13.5C10.5 13.1022 10.658 12.7206 10.9393 12.4393C11.2206 12.158 11.6022 12 12 12C12.3978 12 12.7794 12.158 13.0607 12.4393C13.342 12.7206 13.5 13.1022 13.5 13.5C13.5 13.8978 13.342 14.2794 13.0607 14.5607C12.7794 14.842 12.3978 15 12 15Z"/>
</svg> 